<?xml version="1.0" encoding="UTF-8"?>
<svg width="320px" height="240px" viewBox="0 0 320 240" version="1.1" xmlns="http://www.w3.org/2000/svg" xmlns:xlink="http://www.w3.org/1999/xlink">
    <defs>
        <rect id="path-1" x="0.577549631" y="0.672105065" width="122" height="87"></rect>
    </defs>
    <g stroke="none" stroke-width="1" fill="none" fill-rule="evenodd">
        <g>
            <rect fill="#F0F3F8" x="0" y="0" width="320" height="240"></rect>
            <rect stroke="#CCDDE9" stroke-width="8" x="121" y="98" width="114" height="79"></rect>
            <g transform="translate(142.669991, 103.190357) rotate(-20.000000) translate(-142.669991, -103.190357) translate(81.169991, 59.190357)">
                <g>
                    <use fill="#F0F3F8" fill-rule="evenodd" xlink:href="#path-1"></use>
                    <rect stroke="#CCDDE9" stroke-width="8" x="4.57754963" y="4.67210506" width="114" height="79"></rect>
                </g>
                <circle fill="#CCDDE9" cx="25" cy="21" r="7"></circle>
                <polygon fill="#CCDDE9" points="45.5 64.75 27.7464792 64.75 36.6232396 49.375 45.5 34 54.3767604 49.375 63.2535208 64.75"></polygon>
                <path d="M75.5,65 C65.6666667,65 55.8333333,65 46,65 L60.75,39.5 L75.5,14 L90.25,39.5 L105,65 C95.1666667,65 85.3333333,65 75.5,65 Z" fill="#CCDDE9"></path>
            </g>
        </g>
    </g>
</svg>